<?xml version="1.0" encoding="iso-8859-1"?>
<!-- Uploaded to: SVG Repo, www.svgrepo.com, Generator: SVG Repo Mixer Tools -->
<svg fill="#000000" height="800px" width="800px" version="1.1" id="Layer_1" xmlns="http://www.w3.org/2000/svg" xmlns:xlink="http://www.w3.org/1999/xlink" 
	 viewBox="0 0 512.006 512.006" xml:space="preserve">
<g>
	<g>
		<g>
			<path d="M412.694,341.332c0,11.782,9.551,21.333,21.333,21.333h56.64c0.008,0,0.015-0.001,0.023-0.001
				c1.341-0.001,2.69-0.134,4.034-0.395c0.088-0.017,0.18-0.025,0.268-0.043c0.407-0.085,0.811-0.203,1.216-0.313
				c0.295-0.079,0.596-0.145,0.886-0.237c0.249-0.079,0.494-0.183,0.742-0.271c0.43-0.154,0.861-0.304,1.277-0.484
				c0.036-0.015,0.072-0.025,0.108-0.041c0.221-0.097,0.424-0.216,0.639-0.319c0.381-0.183,0.765-0.361,1.133-0.566
				c0.334-0.184,0.649-0.389,0.969-0.589c0.258-0.161,0.52-0.315,0.77-0.487c0.376-0.257,0.731-0.534,1.086-0.812
				c0.178-0.14,0.362-0.274,0.536-0.419c0.37-0.309,0.718-0.636,1.064-0.967c0.149-0.143,0.302-0.281,0.447-0.428
				c0.327-0.332,0.634-0.679,0.936-1.03c0.151-0.175,0.306-0.346,0.452-0.526c0.264-0.327,0.509-0.665,0.752-1.006
				c0.166-0.231,0.333-0.46,0.49-0.698c0.198-0.302,0.379-0.613,0.561-0.924c0.173-0.295,0.347-0.589,0.507-0.893
				c0.144-0.275,0.272-0.557,0.404-0.838c0.164-0.349,0.328-0.698,0.473-1.058c0.108-0.268,0.2-0.54,0.297-0.812
				c0.134-0.375,0.269-0.749,0.382-1.133c0.089-0.302,0.159-0.609,0.235-0.915c0.088-0.355,0.18-0.708,0.25-1.069
				c0.077-0.394,0.127-0.793,0.182-1.192c0.038-0.279,0.086-0.555,0.112-0.837c0.051-0.531,0.07-1.066,0.081-1.603
				c0.003-0.144,0.022-0.283,0.022-0.427v-0.165c0-0.055,0.001-0.11,0-0.165v-56.309c0-11.782-9.551-21.333-21.333-21.333
				c-10.358,0-18.986,7.384-20.921,17.174c-20.544-15.642-45.751-24.53-73.415-24.53c-51.298,0-96.971,30.54-117.208,76.78
				c-4.724,10.794,0.197,23.373,10.991,28.097c10.794,4.724,23.373-0.197,28.097-10.991c13.509-30.868,43.946-51.22,78.12-51.22
				c20.943,0,39.635,7.696,54.086,21.329h-16.39C422.245,319.999,412.694,329.55,412.694,341.332z"/>
			<path d="M499.22,407.126c-10.794-4.724-23.373,0.197-28.097,10.99c-13.509,30.868-43.946,51.22-78.12,51.22
				c-20.943,0-39.635-7.696-54.086-21.329h16.39c11.782,0,21.333-9.551,21.333-21.333s-9.551-21.333-21.333-21.333h-56.64
				c-0.007,0-0.015,0.001-0.022,0.001c-1.341,0.001-2.689,0.134-4.033,0.395c-0.089,0.017-0.18,0.025-0.269,0.044
				c-0.407,0.085-0.81,0.203-1.215,0.312c-0.295,0.079-0.596,0.145-0.886,0.237c-0.249,0.079-0.494,0.183-0.742,0.271
				c-0.43,0.154-0.861,0.304-1.277,0.484c-0.036,0.015-0.072,0.025-0.108,0.041c-0.22,0.096-0.423,0.216-0.639,0.319
				c-0.382,0.183-0.765,0.362-1.134,0.566c-0.333,0.184-0.647,0.388-0.967,0.587c-0.259,0.162-0.522,0.316-0.773,0.489
				c-0.375,0.257-0.73,0.533-1.084,0.811c-0.179,0.141-0.363,0.275-0.537,0.421c-0.369,0.309-0.717,0.635-1.062,0.965
				c-0.15,0.143-0.303,0.282-0.449,0.429c-0.326,0.332-0.632,0.678-0.935,1.028c-0.152,0.176-0.307,0.348-0.453,0.528
				c-0.263,0.326-0.508,0.664-0.751,1.005c-0.166,0.231-0.334,0.46-0.49,0.698c-0.198,0.302-0.379,0.612-0.561,0.923
				c-0.174,0.296-0.348,0.59-0.508,0.894c-0.143,0.274-0.271,0.555-0.402,0.835c-0.165,0.351-0.329,0.701-0.475,1.061
				c-0.107,0.266-0.199,0.538-0.296,0.808c-0.135,0.376-0.27,0.751-0.383,1.137c-0.089,0.301-0.159,0.607-0.234,0.912
				c-0.088,0.356-0.18,0.709-0.25,1.071c-0.077,0.393-0.127,0.792-0.182,1.19c-0.038,0.28-0.086,0.557-0.113,0.84
				c-0.051,0.53-0.07,1.063-0.081,1.598c-0.003,0.145-0.022,0.286-0.022,0.432v0.167c0,0.054-0.001,0.108,0,0.163v56.31
				c0,11.782,9.551,21.333,21.333,21.333c10.358,0,18.985-7.384,20.921-17.174c20.544,15.642,45.751,24.53,73.415,24.53
				c51.298,0,96.971-30.54,117.208-76.78C514.935,424.429,510.014,411.85,499.22,407.126z"/>
			<path d="M227.217,229.534L445.226,42.67h24.108v149.333c0,11.782,9.551,21.333,21.333,21.333s21.333-9.551,21.333-21.333V21.336
				c0-11.782-9.551-21.333-21.333-21.333H213.334h-85.333H21.334c-11.782,0-21.333,9.551-21.333,21.333v128v85.333v255.88
				c0,0.004,0,0.009,0,0.013v0.107c0,0.207,0.025,0.407,0.031,0.612c0.014,0.478,0.027,0.956,0.072,1.431
				c0.034,0.357,0.096,0.705,0.147,1.057c0.049,0.332,0.087,0.664,0.152,0.993c0.076,0.388,0.177,0.766,0.273,1.147
				c0.073,0.291,0.138,0.583,0.224,0.871c0.11,0.369,0.244,0.728,0.373,1.088c0.106,0.296,0.205,0.593,0.324,0.885
				c0.134,0.326,0.287,0.64,0.436,0.957c0.148,0.317,0.291,0.635,0.456,0.946c0.148,0.278,0.313,0.545,0.473,0.816
				c0.194,0.33,0.384,0.662,0.597,0.983c0.166,0.25,0.349,0.487,0.526,0.729c0.231,0.318,0.456,0.638,0.706,0.945
				c0.211,0.26,0.442,0.502,0.665,0.751c0.238,0.265,0.466,0.536,0.719,0.791c0.335,0.338,0.692,0.652,1.049,0.968
				c0.155,0.137,0.294,0.286,0.454,0.419c0.013,0.011,0.027,0.019,0.04,0.03c0.546,0.453,1.113,0.882,1.703,1.279
				c0.044,0.03,0.091,0.053,0.135,0.082c0.537,0.357,1.088,0.693,1.658,1.001c0.262,0.142,0.533,0.255,0.799,0.385
				c0.36,0.176,0.715,0.36,1.086,0.515c0.324,0.136,0.656,0.242,0.985,0.361c0.326,0.118,0.645,0.248,0.978,0.35
				c0.388,0.119,0.782,0.206,1.174,0.302c0.284,0.07,0.562,0.155,0.851,0.213c0.641,0.13,1.285,0.225,1.932,0.295
				c0.047,0.005,0.092,0.016,0.139,0.021c0.708,0.072,1.419,0.106,2.128,0.107c0.017,0,0.033,0.003,0.049,0.003h170.667
				c11.782,0,21.333-9.551,21.333-21.333s-9.551-21.333-21.333-21.333H66.881l77.508-93.009c3.195-3.834,4.945-8.667,4.945-13.657
				v-128c0-11.782-9.551-21.333-21.333-21.333H42.667V170.67h85.333c11.782,0,21.333-9.551,21.333-21.333V42.67h42.667v170.667
				C192.001,231.562,213.379,241.395,227.217,229.534z M106.667,256.003v98.943l-64,76.8V256.003H106.667z M106.667,128.003h-64
				V42.67h64V128.003z M379.664,42.67L234.667,166.953V42.67H379.664z"/>
		</g>
	</g>
</g>
</svg>